<svg width="16" height="16" viewBox="0 0 16 16" fill="none" xmlns="http://www.w3.org/2000/svg">
<rect width="16" height="16" fill="#EE3643"/>
<path d="M3.5 3.00008C3.01646 3.0022 3 3.5 3 3.5V5.5C3 5.96547 3.5 6 3.5 6H4.18069H4.81025C5.10999 6 5.10938 6.21149 5.10938 6.21149C5.10938 6.21149 4.71047 9.40415 4.66926 9.75309C4.6279 10.1024 4.3799 10.3245 4.3799 10.3245C4.3799 10.3245 3.26861 10.5149 3.1343 10.5889C3 10.6629 3 11.0001 3 11.0001V12.0001C3 12.0001 3 13.0001 4 13.0001H9C9 13.0001 10 13.0001 10 12.0001L10 10.8215C10 10.5889 7.5629 10.3245 7.15999 10.2821C6.75693 10.24 6.83964 9.22006 6.83964 9.22006L7.00493 7.83768L7.5 6.00008H8.5C9.39923 5.9048 10 5.50008 10 5.50008V3.50008C9.28697 2.98182 8.5 3.00008 8.5 3.00008H3.5Z" fill="white"/>
<path d="M13.7032 4H12.7511C12.6549 3.5501 12.4302 3 12.1683 3H11V6H12.1683C12.4301 6 12.6549 5.4499 12.7511 5H13.7032C13.7922 5 14 4.7699 14 4.5C14 4.2301 13.7922 4 13.7032 4Z" fill="white"/>
</svg>
